<?xml version="1.0" encoding="iso-8859-1"?>
<!DOCTYPE svg PUBLIC "-//W3C//DTD SVG 1.0//EN" "http://www.w3.org/TR/2001/REC-SVG-20010904/DTD/svg10.dtd">
<!-- Creator: CorelDRAW -->
<svg xmlns="http://www.w3.org/2000/svg" xmlns:odm="http://product.corel.com/CGS/11/cddns/" xmlns:corel-charset="http://product.corel.com/CGS/11/cddns/" xml:space="preserve" width="0.787402in" height="0.787402in" style="shape-rendering:geometricPrecision; text-rendering:geometricPrecision; image-rendering:optimizeQuality; fill-rule:evenodd"
     viewBox="0 0 788 788">
 <defs>
  <style type="text/css">
   <![CDATA[
    .str0 {stroke:#1F1A17;stroke-width:28;stroke-dasharray:56 28}
    .fil0 {fill:none}
    .fil1 {fill:#1F1A17}
   ]]>
  </style>
 </defs>
 <g id="Vrstva_x0020_1">
  <rect class="fil0 str0" x="59" y="59" width="669" height="669"/>
  <path class="fil1" d="M167 258c0,-3 0,-6 0,-7 0,-10 1,-19 4,-26 2,-5 5,-11 10,-17 3,-4 9,-9 18,-17 9,-8 14,-14 17,-19 3,-4 4,-9 4,-15 0,-9 -4,-18 -11,-26 -8,-7 -18,-11 -29,-11 -10,0 -19,4 -27,10 -7,7 -12,18 -14,32l-26 -3c3,-19 10,-34 21,-44 12,-10 27,-15 46,-15 20,0 36,5 48,16 12,11 18,24 18,40 0,9 -2,17 -6,25 -5,7 -13,16 -25,27 -8,8 -14,13 -16,16 -3,4 -5,8 -6,12 -1,5 -2,12 -2,22l-24 0zm-2 51l0 -29 29 0 0 29 -29 0z"/>
 </g>
</svg>
