<?xml version="1.0" encoding="iso-8859-1"?>
<!DOCTYPE svg PUBLIC "-//W3C//DTD SVG 1.0//EN" "http://www.w3.org/TR/2001/REC-SVG-20010904/DTD/svg10.dtd">
<!-- Creator: CorelDRAW -->
<svg xmlns="http://www.w3.org/2000/svg" xmlns:odm="http://product.corel.com/CGS/11/cddns/" xmlns:corel-charset="http://product.corel.com/CGS/11/cddns/" xml:space="preserve" width="0.787402in" height="0.787402in" style="shape-rendering:geometricPrecision; text-rendering:geometricPrecision; image-rendering:optimizeQuality; fill-rule:evenodd"
     viewBox="0 0 788 788">
 <defs>
  <style type="text/css">
   <![CDATA[
    .fil0 {fill:#1F1A17}
   ]]>
  </style>
 </defs>
 <g id="Vrstva_x0020_1">
  <path class="fil0" d="M356 553c0,-10 0,-17 0,-22 0,-29 4,-55 12,-76 6,-16 16,-32 30,-48 10,-12 28,-30 53,-52 26,-23 43,-41 51,-55 7,-13 11,-28 11,-44 0,-29 -11,-54 -34,-76 -22,-22 -50,-33 -83,-33 -32,0 -58,10 -79,29 -22,20 -36,51 -42,94l-77 -10c7,-56 28,-99 62,-130 34,-30 79,-45 135,-45 59,0 106,17 142,49 35,32 53,71 53,117 0,26 -6,51 -19,73 -12,23 -36,50 -73,82 -24,21 -40,37 -47,47 -8,11 -13,22 -17,36 -3,13 -5,34 -6,64l-72 0zm-4 150l0 -85 85 0 0 85 -85 0z"/>
 </g>
</svg>
