<?xml version="1.0" encoding="iso-8859-1"?>
<!DOCTYPE svg PUBLIC "-//W3C//DTD SVG 1.0//EN" "http://www.w3.org/TR/2001/REC-SVG-20010904/DTD/svg10.dtd">
<!-- Creator: CorelDRAW -->
<svg xmlns="http://www.w3.org/2000/svg" xmlns:odm="http://product.corel.com/CGS/11/cddns/" xmlns:corel-charset="http://product.corel.com/CGS/11/cddns/" xml:space="preserve" width="0.787402in" height="0.787402in" style="shape-rendering:geometricPrecision; text-rendering:geometricPrecision; image-rendering:optimizeQuality; fill-rule:evenodd"
     viewBox="0 0 788 788">
 <defs>
  <style type="text/css">
   <![CDATA[
    .str1 {stroke:#AAA9A9;stroke-width:3;stroke-linejoin:round}
    .str0 {stroke:#AAA9A9;stroke-width:28}
    .fil0 {fill:none}
    .fil2 {fill:#1F1A17}
    .fil1 {fill:#AAA9A9}
   ]]>
  </style>
 </defs>
 <g id="Vrstva_x0020_1">
  <circle class="fil0 str0" cx="197" cy="394" r="138"/>
  <rect class="fil1 str1" x="339" y="373" width="355" height="39"/>
  <path class="fil1 str1" d="M536 218l157 156 -28 28 -156 -157 27 -27z"/>
  <path class="fil1 str1" d="M509 539l156 -157 28 28 -157 157 -27 -28z"/>
  <path class="fil2" d="M178 387c-7,-2 -13,-6 -16,-11 -4,-5 -5,-11 -5,-17 0,-11 3,-19 11,-26 7,-7 17,-11 29,-11 12,0 22,4 29,11 8,7 12,16 12,26 0,7 -2,12 -6,17 -3,5 -8,9 -15,11 9,3 15,7 20,14 4,6 6,13 6,22 0,12 -4,22 -12,30 -9,8 -20,13 -34,13 -14,0 -25,-5 -33,-13 -9,-8 -13,-18 -13,-30 0,-9 2,-17 7,-23 5,-6 11,-11 20,-13zm-4 -29c0,7 2,12 7,16 4,4 9,7 16,7 7,0 12,-3 17,-7 4,-4 6,-9 6,-15 0,-6 -2,-12 -7,-16 -4,-4 -9,-6 -16,-6 -7,0 -12,2 -16,6 -5,4 -7,9 -7,15zm-5 65c0,5 1,9 3,14 2,5 6,8 11,11 4,2 9,3 14,3 9,0 15,-2 21,-8 5,-5 8,-12 8,-20 0,-8 -3,-15 -9,-20 -5,-6 -12,-8 -20,-8 -8,0 -15,2 -20,8 -6,5 -8,12 -8,20z"/>
 </g>
</svg>
