<?xml version="1.0" encoding="iso-8859-1"?>
<!DOCTYPE svg PUBLIC "-//W3C//DTD SVG 1.0//EN" "http://www.w3.org/TR/2001/REC-SVG-20010904/DTD/svg10.dtd">
<!-- Creator: CorelDRAW -->
<svg xmlns="http://www.w3.org/2000/svg" xmlns:odm="http://product.corel.com/CGS/11/cddns/" xmlns:corel-charset="http://product.corel.com/CGS/11/cddns/" xml:space="preserve" width="0.787402in" height="0.787402in" style="shape-rendering:geometricPrecision; text-rendering:geometricPrecision; image-rendering:optimizeQuality; fill-rule:evenodd"
     viewBox="0 0 788 788">
 <defs>
  <style type="text/css">
   <![CDATA[
    .fil0 {fill:#1F1A17}
   ]]>
  </style>
 </defs>
 <g id="Vrstva_x0020_1">
  <path class="fil0" d="M296 213l-197 83 0 -36 156 -63 -156 -63 0 -35 197 81 0 33z"/>
  <path class="fil0" d="M575 296l-83 -197 36 0 63 156 63 -156 35 0 -81 197 -33 0z"/>
  <path class="fil0" d="M492 607l0 -33 197 -82 0 36 -156 63 156 63 0 35 -197 -82z"/>
  <path class="fil0" d="M213 492l83 197 -36 0 -63 -156 -63 156 -35 0 81 -197 33 0z"/>
 </g>
</svg>
