<?xml version="1.0" encoding="iso-8859-1"?>
<!DOCTYPE svg PUBLIC "-//W3C//DTD SVG 1.0//EN" "http://www.w3.org/TR/2001/REC-SVG-20010904/DTD/svg10.dtd">
<!-- Creator: CorelDRAW -->
<svg xmlns="http://www.w3.org/2000/svg" xmlns:odm="http://product.corel.com/CGS/11/cddns/" xmlns:corel-charset="http://product.corel.com/CGS/11/cddns/" xml:space="preserve" width="0.787402in" height="0.787402in" style="shape-rendering:geometricPrecision; text-rendering:geometricPrecision; image-rendering:optimizeQuality; fill-rule:evenodd"
     viewBox="0 0 788 788">
 <defs>
  <style type="text/css">
   <![CDATA[
    .str0 {stroke:#1F1A17;stroke-width:3}
    .str1 {stroke:#1F1A17;stroke-width:28}
    .fil0 {fill:none}
   ]]>
  </style>
 </defs>
 <g id="Vrstva_x0020_1">
  <rect class="fil0 str0" x="40" y="40" width="118" height="118"/>
  <rect class="fil0 str0" x="40" y="158" width="118" height="118"/>
  <rect class="fil0 str0" x="40" y="276" width="118" height="118"/>
  <rect class="fil0 str0" x="40" y="394" width="118" height="118"/>
  <rect class="fil0 str0" x="40" y="512" width="118" height="118"/>
  <rect class="fil0 str0" x="40" y="630" width="118" height="118"/>
  <rect class="fil0 str0" x="158" y="40" width="118" height="118"/>
  <rect class="fil0 str0" x="158" y="158" width="118" height="118"/>
  <rect class="fil0 str0" x="158" y="276" width="118" height="118"/>
  <rect class="fil0 str0" x="158" y="394" width="118" height="118"/>
  <rect class="fil0 str0" x="158" y="512" width="118" height="118"/>
  <rect class="fil0 str0" x="158" y="630" width="118" height="118"/>
  <rect class="fil0 str0" x="276" y="40" width="118" height="118"/>
  <rect class="fil0 str0" x="276" y="158" width="118" height="118"/>
  <rect class="fil0 str0" x="276" y="276" width="118" height="118"/>
  <rect class="fil0 str0" x="276" y="394" width="118" height="118"/>
  <rect class="fil0 str0" x="276" y="512" width="118" height="118"/>
  <rect class="fil0 str0" x="276" y="630" width="118" height="118"/>
  <rect class="fil0 str0" x="394" y="40" width="118" height="118"/>
  <rect class="fil0 str0" x="394" y="158" width="118" height="118"/>
  <rect class="fil0 str0" x="394" y="276" width="118" height="118"/>
  <rect class="fil0 str0" x="394" y="394" width="118" height="118"/>
  <rect class="fil0 str0" x="394" y="512" width="118" height="118"/>
  <rect class="fil0 str0" x="394" y="630" width="118" height="118"/>
  <rect class="fil0 str0" x="512" y="40" width="118" height="118"/>
  <rect class="fil0 str0" x="512" y="158" width="118" height="118"/>
  <rect class="fil0 str0" x="512" y="276" width="118" height="118"/>
  <rect class="fil0 str0" x="512" y="394" width="118" height="118"/>
  <rect class="fil0 str0" x="512" y="512" width="118" height="118"/>
  <rect class="fil0 str0" x="512" y="630" width="118" height="118"/>
  <rect class="fil0 str0" x="630" y="40" width="118" height="118"/>
  <rect class="fil0 str0" x="630" y="158" width="118" height="118"/>
  <rect class="fil0 str0" x="630" y="276" width="118" height="118"/>
  <rect class="fil0 str0" x="630" y="394" width="118" height="118"/>
  <rect class="fil0 str0" x="630" y="512" width="118" height="118"/>
  <rect class="fil0 str0" x="630" y="630" width="118" height="118"/>
  <rect class="fil0 str1" x="40" y="40" width="709" height="709"/>
  <path class="fil0 str1" d="M394 40l0 236"/>
  <path class="fil0 str1" d="M394 158l236 0"/>
  <path class="fil0 str1" d="M630 144l0 368"/>
  <path class="fil0 str1" d="M616 512l146 0"/>
  <path class="fil0 str1" d="M408 276l-146 0"/>
  <path class="fil0 str1" d="M276 158l0 118"/>
  <path class="fil0 str1" d="M290 158l-146 0"/>
  <path class="fil0 str1" d="M158 158l0 236"/>
  <path class="fil0 str1" d="M26 394l146 0"/>
  <path class="fil0 str1" d="M644 276l-146 0"/>
  <path class="fil0 str1" d="M512 276l0 472"/>
  <path class="fil0 str1" d="M276 276l0 236"/>
  <path class="fil0 str1" d="M276 512l236 0"/>
  <path class="fil0 str1" d="M276 498l0 146"/>
  <path class="fil0 str1" d="M276 630l-236 0"/>
 </g>
</svg>
