<?xml version="1.0" encoding="iso-8859-1"?>
<!DOCTYPE svg PUBLIC "-//W3C//DTD SVG 1.0//EN" "http://www.w3.org/TR/2001/REC-SVG-20010904/DTD/svg10.dtd">
<!-- Creator: CorelDRAW -->
<svg xmlns="http://www.w3.org/2000/svg" xmlns:odm="http://product.corel.com/CGS/11/cddns/" xmlns:corel-charset="http://product.corel.com/CGS/11/cddns/" xml:space="preserve" width="0.787402in" height="0.787402in" style="shape-rendering:geometricPrecision; text-rendering:geometricPrecision; image-rendering:optimizeQuality; fill-rule:evenodd"
     viewBox="0 0 788 788">
 <defs>
  <style type="text/css">
   <![CDATA[
    .str0 {stroke:#1F1A17;stroke-width:28;stroke-dasharray:56 28}
    .fil0 {fill:none}
    .fil1 {fill:#1F1A17}
   ]]>
  </style>
 </defs>
 <g id="Vrstva_x0020_1">
  <rect class="fil0 str0" x="59" y="59" width="669" height="669"/>
  <path class="fil1" d="M169 272l-21 0 0 -135c-6,5 -12,10 -20,15 -9,4 -16,8 -23,11l0 -21c12,-5 22,-12 31,-20 9,-8 15,-16 19,-23l14 0 0 173zm121 0l0 -41 -74 0 0 -20 78 -111 18 0 0 111 23 0 0 20 -23 0 0 41 -22 0zm0 -61l0 -77 -53 77 53 0z"/>
 </g>
</svg>
