<?xml version="1.0" encoding="iso-8859-1"?>
<!DOCTYPE svg PUBLIC "-//W3C//DTD SVG 1.0//EN" "http://www.w3.org/TR/2001/REC-SVG-20010904/DTD/svg10.dtd">
<!-- Creator: CorelDRAW -->
<svg xmlns="http://www.w3.org/2000/svg" xmlns:odm="http://product.corel.com/CGS/11/cddns/" xmlns:corel-charset="http://product.corel.com/CGS/11/cddns/" xml:space="preserve" width="0.787402in" height="0.787402in" style="shape-rendering:geometricPrecision; text-rendering:geometricPrecision; image-rendering:optimizeQuality; fill-rule:evenodd"
     viewBox="0 0 788 788">
 <defs>
  <style type="text/css">
   <![CDATA[
    .str0 {stroke:#1F1A17;stroke-width:3}
    .fil0 {fill:#1F1A17}
   ]]>
  </style>
 </defs>
 <g id="Vrstva_x0020_1">
  <path class="fil0 str0" d="M308 353l-167 167 -64 -64 -39 294 294 -39 -64 -64 167 -167 -127 -127zm-84 83m-115 52m-52 115m128 128m115 -52m52 -115m20 -148"/>
  <path class="fil0" d="M577 284l0 27 -144 0c0,-7 1,-13 3,-19 4,-11 10,-21 18,-31 8,-10 20,-22 35,-35 24,-21 40,-37 48,-49 8,-12 12,-24 12,-34 0,-12 -4,-21 -11,-29 -8,-8 -18,-11 -30,-11 -13,0 -23,4 -30,12 -8,8 -12,19 -12,34l-28 -3c2,-22 9,-38 22,-50 12,-11 28,-17 49,-17 21,0 37,6 49,19 13,12 19,27 19,45 0,10 -2,19 -6,28 -3,9 -9,18 -17,28 -9,10 -22,23 -42,41 -15,14 -26,24 -30,29 -5,5 -9,10 -12,15l107 0zm70 -98c-11,-4 -20,-11 -25,-19 -5,-8 -8,-17 -8,-28 0,-17 6,-31 17,-43 11,-11 26,-17 45,-17 19,0 35,6 46,18 12,11 17,26 17,43 0,10 -2,20 -7,28 -6,7 -14,14 -25,18 14,5 24,12 31,22 7,11 10,23 10,37 0,20 -6,37 -19,50 -13,14 -31,20 -52,20 -22,0 -39,-6 -52,-20 -13,-14 -20,-30 -20,-51 0,-15 4,-27 11,-37 7,-10 17,-17 31,-21zm-6 -48c0,11 4,20 10,27 7,7 15,10 26,10 10,0 19,-3 25,-10 7,-7 10,-16 10,-26 0,-10 -3,-19 -10,-26 -7,-7 -15,-11 -25,-11 -11,0 -19,4 -26,11 -6,7 -10,15 -10,25zm-8 107c0,8 1,16 5,23 4,8 9,14 16,18 7,4 15,6 23,6 13,0 23,-4 32,-13 8,-9 12,-20 12,-33 0,-14 -4,-25 -13,-34 -8,-9 -19,-14 -32,-14 -12,0 -23,5 -31,13 -8,9 -12,20 -12,34z"/>
 </g>
</svg>
