<?xml version="1.0" encoding="iso-8859-1"?>
<!DOCTYPE svg PUBLIC "-//W3C//DTD SVG 1.0//EN" "http://www.w3.org/TR/2001/REC-SVG-20010904/DTD/svg10.dtd">
<!-- Creator: CorelDRAW -->
<svg xmlns="http://www.w3.org/2000/svg" xmlns:odm="http://product.corel.com/CGS/11/cddns/" xmlns:corel-charset="http://product.corel.com/CGS/11/cddns/" xml:space="preserve" width="0.787402in" height="0.787402in" style="shape-rendering:geometricPrecision; text-rendering:geometricPrecision; image-rendering:optimizeQuality; fill-rule:evenodd"
     viewBox="0 0 788 788">
 <defs>
  <style type="text/css">
   <![CDATA[
    .str0 {stroke:#1F1A17;stroke-width:3}
    .fil0 {fill:#1F1A17}
   ]]>
  </style>
 </defs>
 <g id="Vrstva_x0020_1">
  <path class="fil0 str0" d="M308 353l-167 167 -64 -64 -39 294 294 -39 -64 -64 167 -167 -127 -127zm-84 83m-115 52m-52 115m128 128m115 -52m52 -115m20 -148"/>
  <path class="fil0" d="M576 287l0 28 -158 0c0,-7 1,-14 3,-20 4,-11 11,-22 20,-32 8,-11 21,-23 38,-36 26,-22 43,-38 52,-51 10,-12 14,-24 14,-35 0,-12 -4,-21 -12,-29 -9,-8 -19,-12 -33,-12 -14,0 -25,4 -34,12 -8,9 -12,20 -13,35l-30 -3c2,-22 10,-39 24,-51 13,-12 31,-18 54,-18 23,0 41,7 54,19 14,13 20,29 20,48 0,9 -2,19 -6,28 -4,9 -10,19 -19,29 -9,10 -24,24 -45,42 -18,15 -29,25 -34,30 -5,5 -9,10 -12,16l117 0zm76 -101c-12,-5 -21,-11 -27,-20 -6,-8 -9,-18 -9,-29 0,-18 6,-32 19,-44 12,-12 29,-18 50,-18 21,0 37,6 50,18 13,13 19,27 19,45 0,11 -3,20 -9,29 -5,8 -14,14 -26,19 15,4 26,12 33,23 8,10 12,23 12,38 0,20 -7,37 -22,51 -14,14 -33,21 -57,21 -23,0 -42,-7 -57,-21 -14,-14 -21,-31 -21,-52 0,-16 4,-29 11,-39 8,-11 20,-18 34,-21zm-6 -50c0,11 4,20 11,28 7,7 17,10 28,10 12,0 21,-3 28,-10 7,-7 11,-16 11,-26 0,-11 -4,-20 -11,-28 -8,-7 -17,-11 -28,-11 -11,0 -20,4 -28,11 -7,7 -11,16 -11,26zm-9 110c0,8 2,17 6,24 4,8 10,14 17,18 8,5 17,7 26,7 14,0 25,-5 34,-14 9,-9 14,-20 14,-34 0,-14 -5,-26 -14,-35 -10,-9 -21,-14 -35,-14 -14,0 -26,5 -35,14 -9,9 -13,20 -13,34z"/>
 </g>
</svg>
