<?xml version="1.0" encoding="iso-8859-1"?>
<!DOCTYPE svg PUBLIC "-//W3C//DTD SVG 1.0//EN" "http://www.w3.org/TR/2001/REC-SVG-20010904/DTD/svg10.dtd">
<!-- Creator: CorelDRAW -->
<svg xmlns="http://www.w3.org/2000/svg" xmlns:odm="http://product.corel.com/CGS/11/cddns/" xmlns:corel-charset="http://product.corel.com/CGS/11/cddns/" xml:space="preserve" width="0.787402in" height="0.787402in" style="shape-rendering:geometricPrecision; text-rendering:geometricPrecision; image-rendering:optimizeQuality; fill-rule:evenodd"
     viewBox="0 0 788 788">
 <defs>
  <style type="text/css">
   <![CDATA[
    .str0 {stroke:#1F1A17;stroke-width:3}
    .fil0 {fill:#1F1A17}
   ]]>
  </style>
 </defs>
 <g id="Vrstva_x0020_1">
  <path class="fil0 str0" d="M480 435l167 -167 64 64 39 -294 -294 39 64 64 -167 167 127 127zm84 -83m115 -52m52 -115m-128 -128m-115 52m-52 115m-20 148"/>
  <path class="fil0" d="M183 678l0 27 -143 0c-1,-7 1,-13 3,-20 3,-10 9,-20 17,-30 8,-11 20,-22 35,-35 24,-21 40,-37 48,-50 8,-12 13,-23 13,-34 0,-11 -4,-20 -12,-28 -7,-8 -17,-12 -29,-12 -13,0 -23,4 -31,13 -8,8 -12,19 -12,34l-27 -3c2,-22 9,-39 21,-50 12,-12 29,-17 49,-17 21,0 38,6 50,18 12,13 18,28 18,46 0,9 -2,18 -5,27 -4,9 -10,19 -18,29 -8,9 -22,23 -41,40 -16,15 -26,24 -31,29 -5,5 -8,11 -11,16l106 0zm70 -98c-11,-5 -19,-11 -25,-19 -5,-8 -8,-17 -8,-29 0,-16 6,-31 17,-42 12,-12 27,-17 46,-17 19,0 34,6 45,17 12,12 18,26 18,43 0,11 -3,20 -8,28 -5,8 -13,14 -24,19 13,4 23,12 30,22 7,10 11,23 11,37 0,20 -7,36 -20,50 -13,13 -30,20 -52,20 -21,0 -39,-7 -52,-20 -13,-14 -19,-31 -19,-51 0,-15 3,-27 10,-38 7,-10 18,-17 31,-20zm-5 -49c0,11 3,20 9,27 7,7 16,11 26,11 10,0 19,-4 26,-11 6,-7 9,-15 9,-25 0,-10 -3,-19 -10,-26 -7,-7 -15,-11 -25,-11 -10,0 -19,4 -25,11 -7,6 -10,15 -10,24zm-9 107c0,8 2,16 5,24 4,7 9,13 16,17 8,5 15,7 23,7 13,0 24,-5 32,-14 8,-8 12,-19 12,-33 0,-13 -4,-25 -12,-34 -9,-9 -20,-13 -33,-13 -12,0 -22,4 -31,13 -8,9 -12,20 -12,33z"/>
 </g>
</svg>
