<?xml version="1.0" encoding="iso-8859-1"?>
<!DOCTYPE svg PUBLIC "-//W3C//DTD SVG 1.0//EN" "http://www.w3.org/TR/2001/REC-SVG-20010904/DTD/svg10.dtd">
<!-- Creator: CorelDRAW -->
<svg xmlns="http://www.w3.org/2000/svg" xmlns:odm="http://product.corel.com/CGS/11/cddns/" xmlns:corel-charset="http://product.corel.com/CGS/11/cddns/" xml:space="preserve" width="0.787402in" height="0.787402in" style="shape-rendering:geometricPrecision; text-rendering:geometricPrecision; image-rendering:optimizeQuality; fill-rule:evenodd"
     viewBox="0 0 788 788">
 <defs>
  <style type="text/css">
   <![CDATA[
    .str0 {stroke:#1F1A17;stroke-width:3}
    .fil0 {fill:#1F1A17}
   ]]>
  </style>
 </defs>
 <g id="Vrstva_x0020_1">
  <path class="fil0 str0" d="M353 480l167 167 -64 64 294 39 -39 -294 -64 64 -167 -167 -127 127zm83 84m52 115m115 52m128 -128m-52 -115m-115 -52m-148 -20"/>
  <path class="fil0" d="M183 284l0 27 -143 0c-1,-7 1,-13 3,-19 3,-11 9,-21 17,-31 8,-10 20,-22 35,-35 24,-21 40,-37 48,-49 8,-12 13,-24 13,-34 0,-12 -4,-21 -12,-29 -7,-8 -17,-11 -29,-11 -13,0 -23,4 -31,12 -8,8 -12,19 -12,34l-27 -3c2,-22 9,-38 21,-50 12,-11 29,-17 49,-17 21,0 38,6 50,19 12,12 18,27 18,45 0,10 -2,19 -5,28 -4,9 -10,18 -18,28 -8,10 -22,23 -41,41 -16,14 -26,24 -31,29 -5,5 -8,10 -11,15l106 0zm70 -98c-11,-4 -19,-11 -25,-19 -5,-8 -8,-17 -8,-28 0,-17 6,-31 17,-43 12,-11 27,-17 46,-17 19,0 34,6 45,18 12,11 18,26 18,43 0,10 -3,20 -8,28 -5,7 -13,14 -24,18 13,5 23,12 30,22 7,11 11,23 11,37 0,20 -7,37 -20,50 -13,14 -30,20 -52,20 -21,0 -39,-6 -52,-20 -13,-14 -19,-30 -19,-51 0,-15 3,-27 10,-37 7,-10 18,-17 31,-21zm-5 -48c0,11 3,20 9,27 7,7 16,10 26,10 10,0 19,-3 26,-10 6,-7 9,-16 9,-26 0,-10 -3,-19 -10,-26 -7,-7 -15,-11 -25,-11 -10,0 -19,4 -25,11 -7,7 -10,15 -10,25zm-9 107c0,8 2,16 5,23 4,8 9,14 16,18 8,4 15,6 23,6 13,0 24,-4 32,-13 8,-9 12,-20 12,-33 0,-14 -4,-25 -12,-34 -9,-9 -20,-14 -33,-14 -12,0 -22,5 -31,13 -8,9 -12,20 -12,34z"/>
 </g>
</svg>
