<?xml version="1.0" encoding="iso-8859-1"?>
<!DOCTYPE svg PUBLIC "-//W3C//DTD SVG 1.0//EN" "http://www.w3.org/TR/2001/REC-SVG-20010904/DTD/svg10.dtd">
<!-- Creator: CorelDRAW -->
<svg xmlns="http://www.w3.org/2000/svg" xmlns:odm="http://product.corel.com/CGS/11/cddns/" xmlns:corel-charset="http://product.corel.com/CGS/11/cddns/" xml:space="preserve" width="0.787402in" height="0.787402in" style="shape-rendering:geometricPrecision; text-rendering:geometricPrecision; image-rendering:optimizeQuality; fill-rule:evenodd"
     viewBox="0 0 788 788">
 <defs>
  <style type="text/css">
   <![CDATA[
    .str0 {stroke:#1F1A17;stroke-width:3}
    .fil0 {fill:#1F1A17}
   ]]>
  </style>
 </defs>
 <g id="Vrstva_x0020_1">
  <path class="fil0 str0" d="M435 308l-167 -167 64 -64 -294 -39 39 294 64 -64 167 167 127 -127zm-83 -84m-52 -115m-115 -52m-128 128m52 115m115 52m148 20"/>
  <path class="fil0" d="M577 678l0 27 -144 0c0,-7 1,-13 3,-20 4,-10 10,-20 18,-30 8,-11 20,-22 35,-35 24,-21 40,-37 48,-50 8,-12 12,-23 12,-34 0,-11 -4,-20 -11,-28 -8,-8 -18,-12 -30,-12 -13,0 -23,4 -30,13 -8,8 -12,19 -12,34l-28 -3c2,-22 9,-39 22,-50 12,-12 28,-17 49,-17 21,0 37,6 49,18 13,13 19,28 19,46 0,9 -2,18 -6,27 -3,9 -9,19 -17,29 -9,9 -22,23 -42,40 -15,15 -26,24 -30,29 -5,5 -9,11 -12,16l107 0zm70 -98c-11,-5 -20,-11 -25,-19 -5,-8 -8,-17 -8,-29 0,-16 6,-31 17,-42 11,-12 26,-17 45,-17 19,0 35,6 46,17 12,12 17,26 17,43 0,11 -2,20 -7,28 -6,8 -14,14 -25,19 14,4 24,12 31,22 7,10 10,23 10,37 0,20 -6,36 -19,50 -13,13 -31,20 -52,20 -22,0 -39,-7 -52,-20 -13,-14 -20,-31 -20,-51 0,-15 4,-27 11,-38 7,-10 17,-17 31,-20zm-6 -49c0,11 4,20 10,27 7,7 15,11 26,11 10,0 19,-4 25,-11 7,-7 10,-15 10,-25 0,-10 -3,-19 -10,-26 -7,-7 -15,-11 -25,-11 -11,0 -19,4 -26,11 -6,6 -10,15 -10,24zm-8 107c0,8 1,16 5,24 4,7 9,13 16,17 7,5 15,7 23,7 13,0 23,-5 32,-14 8,-8 12,-19 12,-33 0,-13 -4,-25 -13,-34 -8,-9 -19,-13 -32,-13 -12,0 -23,4 -31,13 -8,9 -12,20 -12,33z"/>
 </g>
</svg>
