<?xml version="1.0" encoding="iso-8859-1"?>
<!DOCTYPE svg PUBLIC "-//W3C//DTD SVG 1.0//EN" "http://www.w3.org/TR/2001/REC-SVG-20010904/DTD/svg10.dtd">
<!-- Creator: CorelDRAW -->
<svg xmlns="http://www.w3.org/2000/svg" xmlns:odm="http://product.corel.com/CGS/11/cddns/" xmlns:corel-charset="http://product.corel.com/CGS/11/cddns/" xml:space="preserve" width="0.787402in" height="0.787402in" style="shape-rendering:geometricPrecision; text-rendering:geometricPrecision; image-rendering:optimizeQuality; fill-rule:evenodd"
     viewBox="0 0 788 788">
 <defs>
  <style type="text/css">
   <![CDATA[
    .fil0 {fill:#1F1A17}
   ]]>
  </style>
 </defs>
 <g id="Vrstva_x0020_1">
  <path class="fil0" d="M220 541l66 -6c6,31 17,53 32,67 16,14 36,21 61,21 21,0 40,-5 56,-14 16,-10 29,-23 39,-39 10,-16 18,-38 25,-65 7,-28 11,-56 11,-84 0,-3 0,-8 -1,-14 -14,22 -32,40 -56,53 -24,14 -50,21 -77,21 -47,0 -86,-17 -118,-51 -32,-34 -48,-78 -48,-133 0,-56 17,-102 50,-137 34,-34 76,-52 126,-52 36,0 70,10 100,30 30,19 53,47 69,84 15,36 23,88 23,157 0,71 -8,128 -23,171 -16,42 -39,74 -70,96 -30,23 -66,34 -107,34 -44,0 -80,-12 -108,-37 -27,-24 -44,-58 -50,-102zm282 -247c0,-40 -11,-71 -32,-94 -21,-23 -46,-35 -76,-35 -30,0 -57,13 -79,38 -23,25 -34,57 -34,97 0,35 10,64 32,86 21,23 48,34 79,34 32,0 58,-11 79,-34 20,-22 31,-53 31,-92z"/>
 </g>
</svg>
