<?xml version="1.0" encoding="iso-8859-1"?>
<!DOCTYPE svg PUBLIC "-//W3C//DTD SVG 1.0//EN" "http://www.w3.org/TR/2001/REC-SVG-20010904/DTD/svg10.dtd">
<!-- Creator: CorelDRAW -->
<svg xmlns="http://www.w3.org/2000/svg" xmlns:odm="http://product.corel.com/CGS/11/cddns/" xmlns:corel-charset="http://product.corel.com/CGS/11/cddns/" xml:space="preserve" width="0.787402in" height="0.787402in" style="shape-rendering:geometricPrecision; text-rendering:geometricPrecision; image-rendering:optimizeQuality; fill-rule:evenodd"
     viewBox="0 0 788 788">
 <defs>
  <style type="text/css">
   <![CDATA[
    .str0 {stroke:#1F1A17;stroke-width:14}
    .fil0 {fill:none}
    .fil1 {fill:#1F1A17}
   ]]>
  </style>
 </defs>
 <g id="Vrstva_x0020_1">
  <rect class="fil0 str0" x="333" y="197" width="131" height="131"/>
  <rect class="fil0 str0" x="333" y="328" width="131" height="131"/>
  <rect class="fil0 str0" x="333" y="460" width="131" height="131"/>
  <rect class="fil0 str0" x="465" y="197" width="131" height="131"/>
  <rect class="fil0 str0" x="465" y="328" width="131" height="131"/>
  <rect class="fil0 str0" x="465" y="460" width="131" height="131"/>
  <rect class="fil0 str0" x="596" y="197" width="131" height="131"/>
  <rect class="fil0 str0" x="596" y="328" width="131" height="131"/>
  <rect class="fil0 str0" x="596" y="460" width="131" height="131"/>
  <path class="fil1" d="M540 439l0 -22 -39 0 0 -10 41 -58 9 0 0 58 12 0 0 10 -12 0 0 22 -11 0zm0 -32l0 -40 -28 40 28 0z"/>
  <path class="fil1" d="M278 439l0 -22 -39 0 0 -10 41 -58 9 0 0 58 12 0 0 10 -12 0 0 22 -11 0zm0 -32l0 -40 -28 40 28 0z"/>
  <path class="fil1" d="M199 428l0 11 -59 0c0,-3 1,-5 2,-8 1,-4 3,-8 7,-12 3,-4 8,-8 14,-13 10,-8 16,-14 20,-19 3,-5 5,-9 5,-13 0,-5 -2,-8 -5,-11 -3,-3 -7,-5 -12,-5 -5,0 -9,2 -13,5 -3,3 -4,8 -4,13l-12 -1c1,-8 4,-15 9,-19 5,-5 12,-7 20,-7 9,0 16,2 21,7 5,5 7,11 7,18 0,4 0,7 -2,10 -1,4 -4,8 -7,11 -4,4 -9,9 -17,16 -7,6 -11,9 -13,11 -2,2 -3,4 -4,6l43 0z"/>
  <path class="fil1" d="M428 428l0 11 -60 0c0,-3 1,-5 2,-8 1,-4 4,-8 7,-12 3,-4 8,-8 14,-13 10,-8 17,-14 20,-19 3,-5 5,-9 5,-13 0,-5 -1,-8 -5,-11 -3,-3 -7,-5 -12,-5 -5,0 -9,2 -12,5 -4,3 -5,8 -5,13l-12 -1c1,-8 4,-15 9,-19 5,-5 12,-7 20,-7 9,0 16,2 21,7 5,5 7,11 7,18 0,4 0,7 -2,10 -1,4 -4,8 -7,11 -4,4 -9,9 -17,16 -7,6 -11,9 -13,11 -2,2 -3,4 -4,6l44 0z"/>
  <path class="fil1" d="M94 439l-11 0 0 -70c-3,2 -6,5 -10,7 -5,3 -9,5 -12,6l0 -10c6,-3 11,-7 16,-11 5,-4 8,-8 10,-12l7 0 0 90z"/>
  <path class="fil1" d="M674 439l-11 0 0 -70c-2,2 -6,5 -10,7 -4,3 -8,5 -12,6l0 -10c6,-3 12,-7 16,-11 5,-4 8,-8 10,-12l7 0 0 90z"/>
 </g>
</svg>
