<?xml version="1.0" encoding="iso-8859-1"?>
<!DOCTYPE svg PUBLIC "-//W3C//DTD SVG 1.0//EN" "http://www.w3.org/TR/2001/REC-SVG-20010904/DTD/svg10.dtd">
<!-- Creator: CorelDRAW -->
<svg xmlns="http://www.w3.org/2000/svg" xmlns:odm="http://product.corel.com/CGS/11/cddns/" xmlns:corel-charset="http://product.corel.com/CGS/11/cddns/" xml:space="preserve" width="0.787402in" height="0.787402in" style="shape-rendering:geometricPrecision; text-rendering:geometricPrecision; image-rendering:optimizeQuality; fill-rule:evenodd"
     viewBox="0 0 788 788">
 <defs>
  <style type="text/css">
   <![CDATA[
    .str0 {stroke:#1F1A17;stroke-width:14}
    .fil0 {fill:none}
    .fil1 {fill:#1F1A17}
   ]]>
  </style>
 </defs>
 <g id="Vrstva_x0020_1">
  <rect class="fil0 str0" x="235" y="197" width="131" height="131"/>
  <rect class="fil0 str0" x="235" y="328" width="131" height="131"/>
  <rect class="fil0 str0" x="235" y="460" width="131" height="131"/>
  <rect class="fil0 str0" x="366" y="197" width="131" height="131"/>
  <rect class="fil0 str0" x="366" y="328" width="131" height="131"/>
  <rect class="fil0 str0" x="366" y="460" width="131" height="131"/>
  <rect class="fil0 str0" x="497" y="197" width="131" height="131"/>
  <rect class="fil0 str0" x="497" y="328" width="131" height="131"/>
  <rect class="fil0 str0" x="497" y="460" width="131" height="131"/>
  <path class="fil1" d="M192 439l-11 0 0 -70c-2,2 -6,5 -10,7 -4,3 -8,5 -12,6l0 -10c7,-3 12,-7 17,-11 4,-4 7,-8 9,-12l7 0 0 90z"/>
  <path class="fil1" d="M274 417l11 0c1,4 2,8 5,10 2,3 6,4 9,4 4,0 7,-1 9,-3 3,-1 5,-3 7,-6 1,-2 3,-6 4,-10 1,-5 1,-9 1,-14 0,0 0,-1 0,-2 -2,4 -5,6 -9,9 -4,2 -8,3 -12,3 -7,0 -14,-3 -19,-8 -5,-6 -8,-13 -8,-21 0,-10 3,-17 8,-22 6,-6 13,-9 21,-9 5,0 11,2 16,5 4,3 8,8 11,13 2,6 3,15 3,26 0,11 -1,20 -3,27 -3,7 -7,12 -12,15 -4,4 -10,6 -17,6 -7,0 -12,-2 -17,-6 -4,-4 -7,-9 -8,-17zm45 -39c0,-6 -2,-11 -5,-15 -3,-4 -7,-6 -12,-6 -5,0 -9,2 -13,6 -3,4 -5,10 -5,16 0,6 1,10 5,14 3,3 8,5 13,5 5,0 9,-2 12,-5 3,-4 5,-9 5,-15z"/>
 </g>
</svg>
