<?xml version="1.0" encoding="iso-8859-1"?>
<!DOCTYPE svg PUBLIC "-//W3C//DTD SVG 1.0//EN" "http://www.w3.org/TR/2001/REC-SVG-20010904/DTD/svg10.dtd">
<!-- Creator: CorelDRAW -->
<svg xmlns="http://www.w3.org/2000/svg" xmlns:odm="http://product.corel.com/CGS/11/cddns/" xmlns:corel-charset="http://product.corel.com/CGS/11/cddns/" xml:space="preserve" width="0.787402in" height="0.787402in" style="shape-rendering:geometricPrecision; text-rendering:geometricPrecision; image-rendering:optimizeQuality; fill-rule:evenodd"
     viewBox="0 0 788 788">
 <defs>
  <style type="text/css">
   <![CDATA[
    .str0 {stroke:#1F1A17;stroke-width:28}
    .fil0 {fill:none}
    .fil1 {fill:#1F1A17}
   ]]>
  </style>
 </defs>
 <g id="Vrstva_x0020_1">
  <circle class="fil0 str0" cx="394" cy="394" r="335"/>
  <path class="fil1" d="M331 508l-29 0 0 -187c-7,7 -16,13 -28,20 -11,7 -21,12 -30,15l0 -28c16,-8 30,-17 43,-28 12,-11 20,-22 26,-32l18 0 0 240z"/>
  <path class="fil1" d="M560 480l0 28 -157 0c0,-7 1,-14 3,-21 4,-10 11,-21 19,-31 9,-11 22,-23 39,-37 26,-21 43,-38 52,-50 9,-12 14,-24 14,-35 0,-12 -4,-22 -12,-30 -9,-8 -20,-12 -33,-12 -14,0 -25,5 -34,13 -8,9 -13,20 -13,35l-30 -3c2,-22 10,-39 24,-51 13,-12 31,-18 54,-18 23,0 41,6 54,19 13,13 20,29 20,47 0,10 -2,19 -6,29 -4,9 -10,18 -19,29 -9,10 -24,24 -45,42 -18,14 -29,24 -34,30 -5,5 -9,10 -13,16l117 0z"/>
 </g>
</svg>
