<?xml version="1.0" encoding="iso-8859-1"?>
<!DOCTYPE svg PUBLIC "-//W3C//DTD SVG 1.0//EN" "http://www.w3.org/TR/2001/REC-SVG-20010904/DTD/svg10.dtd">
<!-- Creator: CorelDRAW -->
<svg xmlns="http://www.w3.org/2000/svg" xmlns:odm="http://product.corel.com/CGS/11/cddns/" xmlns:corel-charset="http://product.corel.com/CGS/11/cddns/" xml:space="preserve" width="0.787402in" height="0.787402in" style="shape-rendering:geometricPrecision; text-rendering:geometricPrecision; image-rendering:optimizeQuality; fill-rule:evenodd"
     viewBox="0 0 788 788">
 <defs>
  <style type="text/css">
   <![CDATA[
    .fil0 {fill:#1F1A17}
   ]]>
  </style>
 </defs>
 <g id="Vrstva_x0020_1">
  <path class="fil0" d="M122 542l114 -154 -101 -142 47 0 53 76c11,16 19,28 24,36 6,-10 14,-22 23,-33l60 -79 42 0 -104 140 112 156 -48 0 -74 -106c-5,-6 -9,-12 -13,-19 -7,10 -12,18 -14,22l-75 103 -46 0zm389 0l-114 -296 42 0 76 215c7,17 12,33 16,48 5,-16 10,-32 16,-48l80 -215 39 0 -115 296 -40 0z"/>
 </g>
</svg>
